<?xml version="1.0" encoding="UTF-8"?>
<svg width="150" height="55" fill="none" viewBox="0 0 939 147" xmlns="http://www.w3.org/2000/svg">
<g clipPath="url(#clip0_982_576)">
<path d="m93.127 80.931c-0.8481 2.1-2.1 3.9779-3.7558 5.6337-1.6558 1.6557-3.7356 2.9682-6.2798 3.9577-2.5442 0.9894-5.5125 1.474-8.9452 1.474h-15.508v-35.377h15.508c3.4327 0 6.401 0.4846 8.9452 1.474s4.624 2.3019 6.2798 3.9577c1.6356 1.6558 2.8875 3.5337 3.7558 5.6337 0.8481 2.1 1.2923 4.3211 1.2923 6.623 0 2.302-0.4241 4.5029-1.2923 6.6231z" fill="#FA7C1F"/>
<path d="m220.8 3.6348-66.635 141.35h39.577l10.339-22.01h66.877l10.399 22.01h40.384l-66.21-141.35h-34.731zm-3.412 91.067 11.287-24.029c1.474-3.2307 2.827-6.2192 4.039-8.9856 1.211-2.7663 2.362-5.4519 3.432-8.0769 0.545-1.3327 1.07-2.6856 1.575-4.0384 0.424 1.2115 0.828 2.423 1.252 3.6346 0.949 2.625 2.019 5.3509 3.231 8.1779 1.211 2.8269 2.564 5.9163 4.038 9.2884l11.369 24.029h-40.223z" fill="#333"/>
<path d="m452.59 3.6348h-147.4v34.529h52.904v106.82h39.981v-106.82h54.519v-34.529z" fill="#333"/>
<path d="m501.88 3.6348-66.635 141.35h39.577l10.338-22.01h66.877l10.399 22.01h40.385l-66.211-141.35h-34.73zm-3.413 91.067 11.288-24.029c1.474-3.2307 2.827-6.2192 4.038-8.9856 1.212-2.7663 2.363-5.4519 3.433-8.0769 0.545-1.3327 1.07-2.6856 1.575-4.0384 0.424 1.2115 0.828 2.423 1.252 3.6346 0.949 2.625 2.019 5.3509 3.231 8.1779 1.211 2.8269 2.564 5.9163 4.038 9.2884l11.368 24.029h-40.223z" fill="#333"/>
<path d="m749.3 29.481v-25.846h-129.03v36.346h67.987l-73.237 78.952v26.048h136.5v-34.327h-77.377l75.155-81.173z" fill="#333"/>
<path d="m932.48 44.221c-4.241-8.8846-10.238-16.618-17.971-23.221-7.734-6.6029-16.901-11.752-27.462-15.447-10.561-3.6952-22.171-5.5529-34.832-5.5529-12.66 0-24.271 1.8577-34.831 5.5529-10.561 3.6952-19.688 8.8442-27.361 15.447s-13.67 14.336-17.971 23.221c-4.301 8.8847-6.462 18.638-6.462 29.279s2.12 20.233 6.361 29.178c4.24 8.945 10.197 16.719 17.87 23.322s16.82 11.752 27.462 15.447c10.641 3.695 22.272 5.553 34.932 5.553 12.661 0 24.271-1.858 34.832-5.553s19.728-8.844 27.462-15.447c7.733-6.603 13.73-14.377 17.971-23.322 4.24-8.9453 6.36-18.739 6.36-29.38 0-10.641-2.12-20.192-6.36-29.077zm-37.76 43.615c-2.221 4.4423-5.391 8.3193-9.49 11.611-4.12 3.2909-8.986 5.8559-14.64 7.6729s-11.772 2.726-18.375 2.726-12.882-0.909-18.476-2.726c-5.593-1.817-10.439-4.341-14.538-7.5719-4.099-3.2308-7.269-7.1077-9.49-11.611-2.222-4.5029-3.332-9.3288-3.332-14.438s1.11-10.096 3.332-14.538c2.221-4.4423 5.391-8.2788 9.49-11.51s8.945-5.7548 14.538-7.5721c5.594-1.8173 11.752-2.726 18.476-2.726s12.721 0.9087 18.375 2.726 10.52 4.3817 14.64 7.6731c4.099 3.2913 7.269 7.1682 9.49 11.611 2.221 4.4423 3.332 9.2278 3.332 14.336s-1.111 9.8942-3.332 14.336z" fill="#333"/>
<path d="m148.62 47.149c-3.776-8.5414-9.167-16.093-16.153-22.615-7.007-6.5221-15.549-11.651-25.645-15.346-10.096-3.6952-21.464-5.5529-34.125-5.5529h-72.692v52.985h39.981v-18.456h31.702c7.0067 0 13.085 1.0096 18.274 3.0289 5.1894 2.0192 9.45 4.7048 12.822 8.0769 3.372 3.3721 5.916 7.2086 7.673 11.51s2.625 8.824 2.625 13.529-0.868 9.2279-2.625 13.529c-1.757 4.3009-4.301 8.1375-7.673 11.51-3.3723 3.3717-7.6329 6.0577-12.822 8.0767s-11.267 3.029-18.274 3.029h-31.702v-18.456h-39.981v52.985h72.692c12.661 0 23.988-1.858 34.024-5.553 10.016-3.695 18.577-8.784 25.645-15.245 7.067-6.462 12.478-13.973 16.254-22.515 3.776-8.5409 5.654-17.668 5.654-27.36s-1.878-18.617-5.654-27.159z" fill="#333"/>
</g>
</svg>
